<?xml version="1.0" standalone="no"?>
<!DOCTYPE svg PUBLIC "-//W3C//DTD SVG 20010904//EN"
 "http://www.w3.org/TR/2001/REC-SVG-20010904/DTD/svg10.dtd">
<svg version="1.0" xmlns="http://www.w3.org/2000/svg"
 width="900.000000pt" height="900.000000pt" viewBox="0 0 900.000000 900.000000"
 preserveAspectRatio="xMidYMid meet">

<g transform="translate(0.000000,900.000000) scale(0.100000,-0.100000)"
fill="#000000" stroke="none">
<path d="M4175 8625 c-196 -16 -368 -41 -530 -75 -27 -5 -63 -13 -80 -16 -16
-4 -79 -20 -140 -36 -60 -17 -123 -34 -140 -38 -76 -19 -348 -120 -475 -177
-83 -37 -355 -176 -415 -213 -36 -22 -68 -40 -71 -40 -7 0 -232 -154 -314
-214 -220 -163 -530 -458 -701 -666 -279 -339 -479 -668 -634 -1040 -26 -63
-51 -124 -56 -135 -79 -189 -176 -549 -215 -795 -45 -290 -48 -330 -48 -685 0
-236 4 -379 12 -440 73 -504 131 -732 284 -1113 263 -656 695 -1236 1248
-1677 106 -84 372 -275 383 -275 3 0 43 -23 89 -52 118 -73 380 -205 533 -268
374 -153 704 -237 1145 -291 133 -17 624 -23 765 -10 567 53 1039 184 1519
423 963 479 1715 1333 2059 2336 119 346 176 603 218 987 16 145 16 620 0 760
-16 141 -60 430 -72 475 -5 19 -23 93 -40 165 -117 495 -378 1040 -711 1482
-75 100 -278 335 -343 397 -22 21 -80 77 -130 125 -196 191 -449 380 -738 553
-102 61 -394 206 -522 258 -591 241 -1261 346 -1880 295z m740 -45 c232 -27
472 -73 675 -129 136 -37 373 -119 462 -160 24 -11 67 -29 94 -40 210 -84 564
-292 807 -475 423 -318 778 -714 1068 -1191 82 -136 208 -392 272 -555 149
-381 208 -607 267 -1025 52 -369 36 -867 -40 -1270 -33 -174 -46 -229 -109
-440 -197 -662 -603 -1314 -1111 -1784 -70 -64 -137 -125 -150 -136 -261 -215
-430 -332 -680 -471 -194 -108 -488 -238 -675 -299 -385 -126 -697 -184 -1105
-205 -422 -23 -806 16 -1255 129 -125 31 -414 129 -520 176 -16 7 -59 26 -95
41 -69 30 -271 132 -355 179 -467 263 -917 657 -1249 1095 -208 275 -388 587
-521 905 -7 17 -18 44 -25 60 -7 17 -16 41 -20 55 -5 14 -22 63 -40 110 -59
159 -125 415 -169 655 -68 362 -74 881 -15 1283 22 158 72 398 105 507 181
610 430 1079 816 1540 384 459 921 869 1438 1097 50 22 104 46 120 53 206 91
520 186 790 238 194 37 253 45 520 71 76 8 610 -3 700 -14z"/>
<path d="M3915 7540 c-231 -22 -492 -117 -695 -253 -276 -185 -491 -457 -598
-757 -61 -173 -82 -302 -82 -515 0 -238 37 -410 132 -615 193 -417 577 -738
1018 -851 185 -48 214 -49 1187 -49 l918 0 47 58 c85 105 217 271 308 387 21
28 59 76 84 108 l46 57 -1137 0 c-937 0 -1152 3 -1218 14 -199 35 -364 122
-511 270 -178 179 -264 382 -264 628 0 171 33 297 116 442 130 226 343 383
611 450 55 13 177 16 915 16 469 1 854 -3 855 -7 3 -7 -55 -79 -192 -238 -23
-27 -61 -74 -84 -102 l-41 -53 -648 0 c-679 0 -714 -2 -812 -46 -100 -45 -213
-146 -256 -230 -68 -130 -73 -320 -12 -441 12 -24 24 -43 27 -43 3 0 19 16 35
36 26 33 27 38 17 77 -34 122 -29 208 17 308 25 54 88 123 152 166 109 72 107
72 862 73 l666 0 89 108 c49 59 154 188 233 287 79 99 147 182 152 183 4 2 8
10 8 18 0 21 -1814 21 -1940 -1 -156 -26 -273 -71 -395 -150 -219 -142 -367
-336 -442 -580 -26 -84 -28 -102 -28 -265 0 -213 16 -283 101 -456 40 -82 191
-284 212 -284 4 0 21 -13 38 -29 38 -35 164 -121 219 -148 44 -22 141 -57 225
-81 48 -14 193 -16 1138 -19 595 -2 1082 -6 1082 -9 0 -3 -57 -76 -127 -161
-71 -86 -144 -175 -163 -200 l-35 -44 -925 3 c-1022 4 -983 2 -1185 70 -246
83 -428 199 -610 390 -177 184 -296 406 -357 662 -30 126 -33 459 -5 581 38
162 85 285 159 411 147 251 355 448 608 574 163 82 322 130 495 150 56 6 500
10 1182 10 l1091 0 31 39 c17 21 31 44 31 50 0 13 -2209 13 -2345 1z"/>
<path d="M4007 5813 c-4 -3 -7 -26 -7 -50 l0 -43 404 0 405 0 35 44 c20 23 36
46 36 50 0 8 -865 8 -873 -1z"/>
<path d="M2281 3787 c-14 -6 -52 -52 -86 -102 -34 -49 -141 -206 -238 -348
-97 -143 -175 -263 -172 -268 8 -11 127 1 140 15 6 6 61 85 121 176 185 276
260 384 271 387 10 4 323 -455 323 -471 0 -3 -109 -6 -243 -6 l-244 0 -32 -45
c-18 -25 -29 -50 -26 -55 8 -13 739 -9 751 3 5 4 4 14 -1 22 -6 8 -108 161
-228 340 -120 179 -230 334 -244 345 -29 23 -57 25 -92 7z"/>
<path d="M5543 3776 c-27 -23 -100 -127 -406 -577 -44 -65 -77 -122 -73 -127
7 -11 106 -9 125 2 5 4 54 73 109 154 303 451 288 431 306 411 20 -21 300
-442 304 -456 3 -10 -49 -13 -235 -13 -131 0 -243 -4 -249 -8 -22 -15 -65 -82
-60 -91 4 -6 147 -10 376 -11 318 0 371 2 376 14 4 9 -84 148 -221 353 -125
186 -233 344 -239 351 -7 7 -28 15 -47 18 -28 5 -41 1 -66 -20z"/>
<path d="M1220 3780 c-108 -20 -196 -70 -254 -146 -50 -65 -69 -130 -64 -217
5 -93 38 -167 106 -233 104 -103 211 -129 506 -123 l178 4 39 44 c22 24 39 47
39 52 0 5 -111 9 -247 9 -279 0 -325 8 -406 66 -71 52 -102 122 -94 217 7 83
34 130 99 175 78 53 128 62 364 62 l212 0 31 39 c17 21 31 44 31 50 0 13 -467
14 -540 1z"/>
<path d="M2976 3743 l-37 -48 303 -6 c282 -6 371 -14 417 -38 31 -17 51 -58
51 -105 0 -66 -35 -102 -125 -127 -61 -17 -104 -19 -357 -19 l-288 0 0 -164 0
-163 40 -7 c74 -12 80 -2 80 129 l0 115 203 0 202 0 100 -92 c56 -51 112 -104
125 -116 14 -13 35 -28 48 -33 30 -12 142 -12 142 0 0 5 -15 21 -32 36 -18 15
-73 64 -122 109 -48 44 -95 85 -102 89 -25 14 -15 22 47 41 83 24 143 82 157
151 11 52 4 126 -15 160 -22 39 -79 83 -138 106 -57 22 -76 23 -360 27 l-301
4 -38 -49z"/>
<path d="M4505 3783 c-63 -9 -152 -45 -195 -79 -173 -136 -181 -378 -19 -529
100 -94 197 -116 483 -112 l198 2 34 40 c19 22 34 46 34 53 0 9 -55 12 -243
12 -272 0 -314 7 -402 66 -73 48 -99 98 -98 194 0 82 20 133 72 178 77 68 141
82 396 82 l210 0 33 40 c17 21 32 43 32 48 0 10 -470 14 -535 5z"/>
<path d="M6256 3749 c-20 -23 -36 -46 -36 -50 0 -4 141 -10 313 -12 213 -2
324 -7 349 -16 58 -19 89 -50 98 -101 14 -74 -23 -121 -118 -150 -58 -18 -93
-20 -358 -20 l-294 0 2 -167 3 -168 55 0 55 0 5 120 5 120 198 3 c148 2 203
-1 216 -10 10 -7 67 -58 125 -113 59 -55 119 -105 134 -112 28 -13 130 -14
138 -2 2 4 -31 38 -73 76 -42 37 -84 75 -93 83 -8 8 -35 31 -58 50 -23 19 -42
37 -42 40 0 3 27 14 60 24 104 30 170 112 170 210 0 60 -41 138 -91 171 -86
57 -100 59 -425 63 l-301 4 -37 -43z"/>
<path d="M7247 3783 c-4 -3 -7 -165 -7 -359 0 -297 2 -353 14 -357 8 -3 162
-6 342 -7 l327 -1 43 47 c24 26 41 50 38 55 -3 5 -148 9 -323 9 -175 0 -320 2
-322 4 -2 2 -2 51 1 108 l5 103 230 2 c127 1 250 3 275 3 41 1 48 4 72 39 14
22 24 42 21 45 -4 3 -141 6 -305 6 l-299 0 3 103 3 102 282 3 282 2 35 42 c20
23 36 45 36 50 0 10 -744 11 -753 1z"/>
<path d="M4750 2740 c-149 -19 -256 -86 -300 -187 -30 -68 -40 -169 -25 -255
26 -150 96 -226 250 -269 33 -9 102 -14 205 -14 136 0 164 3 228 24 126 41
204 132 222 261 22 154 -22 295 -114 365 -89 68 -283 99 -466 75z m340 -79
c113 -43 166 -115 176 -244 13 -155 -33 -255 -144 -309 -65 -32 -70 -33 -222
-36 -176 -4 -239 8 -308 58 -52 38 -81 80 -98 143 -39 146 8 303 108 360 79
45 150 56 313 52 91 -2 133 -8 175 -24z"/>
<path d="M1753 2732 c-9 -5 -11 -102 -10 -357 l2 -350 342 -3 c300 -2 343 0
357 14 9 8 16 22 16 30 0 11 -53 14 -327 16 l-328 3 0 135 0 135 294 3 c257 2
297 4 313 19 10 9 18 20 18 24 0 5 -141 10 -312 11 l-313 3 0 130 0 130 303 2
c300 1 304 2 328 24 13 12 21 25 19 29 -6 10 -687 11 -702 2z"/>
<path d="M2545 2732 c-13 -10 -18 -302 -7 -423 13 -147 43 -194 157 -250 76
-36 197 -54 325 -46 130 8 211 37 270 96 72 73 80 112 80 388 0 228 0 231 -22
236 -12 3 -25 4 -30 1 -4 -3 -8 -105 -8 -228 0 -304 -14 -347 -128 -403 -52
-25 -69 -28 -187 -32 -235 -6 -345 42 -387 170 -6 19 -14 137 -17 264 -5 193
-8 230 -21 232 -8 2 -19 0 -25 -5z"/>
<path d="M3560 2733 c-39 -5 -60 -19 -60 -39 0 -10 61 -13 298 -16 283 -3 300
-5 355 -27 74 -29 107 -74 107 -146 0 -54 -25 -106 -58 -124 -73 -39 -113 -44
-412 -46 l-295 -2 0 -154 0 -154 25 0 25 0 5 125 5 125 216 3 217 2 58 -47
c33 -26 101 -83 152 -126 73 -62 101 -80 132 -84 69 -10 65 -5 -127 156 -62
51 -113 97 -113 102 0 4 17 11 38 14 60 10 138 51 167 89 18 23 28 52 32 88
14 143 -66 231 -234 257 -67 10 -455 13 -533 4z"/>
<path d="M5501 2733 c-27 -5 -51 -25 -51 -42 0 -8 83 -11 264 -11 273 0 342
-7 411 -40 91 -44 113 -173 42 -244 -10 -10 -42 -27 -70 -38 -47 -18 -81 -20
-342 -23 -159 -1 -296 -3 -303 -4 -10 -1 -12 -36 -10 -153 l3 -153 27 -3 27
-3 3 128 3 128 290 6 c161 3 304 10 321 16 91 31 128 67 148 144 24 94 -8 190
-79 236 -77 51 -113 56 -395 58 -146 2 -276 0 -289 -2z"/>
<path d="M6392 2731 c-9 -6 -12 -88 -10 -357 l3 -349 333 -3 c335 -2 372 1
372 33 0 13 -49 15 -322 17 l-323 3 0 140 0 140 296 5 c295 5 329 9 329 41 0
5 -141 10 -312 11 l-313 3 0 130 0 130 312 5 c319 5 343 8 330 44 -5 13 -50
15 -344 15 -186 0 -344 -4 -351 -8z"/>
</g>
</svg>
